<svg id="networking" xmlns="http://www.w3.org/2000/svg" width="35" height="35" viewBox="0 0 35 35">
  <path id="Path_21" data-name="Path 21" d="M32.448,0H2.552A2.555,2.555,0,0,0,0,2.552V6.2A2.555,2.555,0,0,0,2.552,8.75h29.9A2.555,2.555,0,0,0,35,6.2V2.552A2.555,2.555,0,0,0,32.448,0Z" fill="#5c5f62"/>
  <path id="Path_22" data-name="Path 22" d="M20.781,11.667H2.552A2.564,2.564,0,0,0,0,14.219V32.448A2.564,2.564,0,0,0,2.552,35H20.781a2.564,2.564,0,0,0,2.552-2.552V14.219a2.564,2.564,0,0,0-2.552-2.552ZM11.667,17.5a2.187,2.187,0,1,1-2.188,2.188A2.185,2.185,0,0,1,11.667,17.5Zm4.375,9.115a1.1,1.1,0,0,1-1.094,1.094H8.385a1.1,1.1,0,0,1-1.094-1.094v-.54a2.914,2.914,0,0,1,3.062-2.742h2.625a2.914,2.914,0,0,1,3.062,2.742Z" fill="#5c5f62"/>
  <circle id="Ellipse_1" data-name="Ellipse 1" cx="4.375" cy="4.375" r="4.375" transform="translate(26.25 25.521)" fill="#5c5f62"/>
  <path id="Path_23" data-name="Path 23" d="M33.906,16.042H27.344a1.094,1.094,0,0,0,0,2.188h6.563a1.094,1.094,0,0,0,0-2.187Z" fill="#5c5f62"/>
  <path id="Path_24" data-name="Path 24" d="M33.906,11.667H27.344a1.094,1.094,0,1,0,0,2.187h6.563a1.094,1.094,0,1,0,0-2.187Z" fill="#5c5f62"/>
  <path id="Path_25" data-name="Path 25" d="M33.906,20.417H27.344a1.094,1.094,0,0,0,0,2.188h6.563a1.094,1.094,0,0,0,0-2.187Z" fill="#5c5f62"/>
</svg>
