<svg xmlns="http://www.w3.org/2000/svg" xmlns:xlink="http://www.w3.org/1999/xlink" width="36" height="35" viewBox="0 0 36 35">
  <defs>
    <clipPath id="clip-path">
      <rect id="Rectangle_5" data-name="Rectangle 5" width="36" height="35" fill="#0c568e"/>
    </clipPath>
  </defs>
  <g id="Mask_Group_23" data-name="Mask Group 23" clip-path="url(#clip-path)">
    <g id="man-with-beret" transform="translate(1.781 0)">
      <g id="Group_608" data-name="Group 608">
        <ellipse id="Ellipse_25" data-name="Ellipse 25" cx="1.833" cy="0.733" rx="1.833" ry="0.733" transform="translate(14.729 24.05)" fill="#0c568e"/>
        <circle id="Ellipse_26" data-name="Ellipse 26" cx="1.65" cy="1.65" r="1.65" transform="translate(9.932 18.637)" fill="#0c568e"/>
        <circle id="Ellipse_27" data-name="Ellipse 27" cx="1.65" cy="1.65" r="1.65" transform="translate(19.892 18.637)" fill="#0c568e"/>
        <path id="Path_130" data-name="Path 130" d="M31.381,19.063c-.01-.1-.023-.2-.034-.293a11.6,11.6,0,0,0,.126-1.318,4.409,4.409,0,0,0,2.112-4.039c-.375-3.379-4.127-6.192-8.872-8.172-.079-2.7-2.549-5-5.73-5.222a6.263,6.263,0,0,0-5.475,2.306A27.226,27.226,0,0,0,7.5,2.177c-3.674.4-6.53,2.813-6.67,7.061A5.664,5.664,0,0,0,3.555,14.3a12.683,12.683,0,0,0-.109,4.634c0,.028-.007.057-.01.085a4.894,4.894,0,0,0-1.817,3.835A4.8,4.8,0,0,0,4.892,27.47a14.164,14.164,0,0,0,25.038-.018,4.8,4.8,0,0,0,3.219-4.6A4.893,4.893,0,0,0,31.381,19.063Zm-2.81,5.674a1.434,1.434,0,0,1-.6-.134A11.207,11.207,0,0,1,6.84,24.59a1.473,1.473,0,0,1-.641.147,1.9,1.9,0,0,1,0-3.758,9.277,9.277,0,0,0,.865,1.238,11.444,11.444,0,0,1-.472-3.192,9.292,9.292,0,0,1,.327-2.441,6.212,6.212,0,0,1,.271-.71c.359.095.719.181,1.077.251a73.06,73.06,0,0,0,12.484.368,10.921,10.921,0,0,0,5.575,2.313,9.269,9.269,0,0,0,1.848-.09c0,.1.015.2.015.307a11.437,11.437,0,0,1-.473,3.192,9.324,9.324,0,0,0,.866-1.238,1.9,1.9,0,0,1-.007,3.758Z" transform="translate(-0.823 0)" fill="#0c568e"/>
      </g>
    </g>
  </g>
</svg>
